<svg xmlns="http://www.w3.org/2000/svg" viewBox="0 0 400 215" width="400" height="215" role="img" aria-label="Gráfico de barras com o tempo de vários frames. Quase todas ficam abaixo de uma linha de 16,6 milésimos, e uma barra isolada sobe muito acima dela."><title>Gráfico de barras com o tempo de vários frames. Quase todas ficam abaixo de uma linha de 16,6 milésimos, e uma barra isolada sobe muito acima dela.</title><path d="M 40 25 L 40 180 L 385 180" fill="none" stroke="#1C1C2E" stroke-width="1.4" stroke-linecap="round" stroke-linejoin="round"/><text font-family="system-ui,-apple-system,Segoe UI,Roboto,sans-serif" font-size="9.5" font-weight="600" fill="#1C1C2E" fill-opacity="0.8" text-anchor="end"><tspan x="34" y="30">ms</tspan></text><text font-family="system-ui,-apple-system,Segoe UI,Roboto,sans-serif" font-size="9" font-weight="400" fill="#1C1C2E" fill-opacity="0.7" text-anchor="end"><tspan x="34" y="183.5">0</tspan></text><text font-family="system-ui,-apple-system,Segoe UI,Roboto,sans-serif" font-size="9" font-weight="400" fill="#1C1C2E" fill-opacity="0.7" text-anchor="end"><tspan x="34" y="140.64285714285714">20</tspan></text><text font-family="system-ui,-apple-system,Segoe UI,Roboto,sans-serif" font-size="9" font-weight="400" fill="#1C1C2E" fill-opacity="0.7" text-anchor="end"><tspan x="34" y="97.78571428571429">40</tspan></text><text font-family="system-ui,-apple-system,Segoe UI,Roboto,sans-serif" font-size="9" font-weight="400" fill="#1C1C2E" fill-opacity="0.7" text-anchor="end"><tspan x="34" y="54.928571428571445">60</tspan></text><rect x="48.0" y="157.2" width="11" height="22.8" rx="2" fill="#DCEBFA" stroke="#1C1C2E" stroke-width="1"/><rect x="63.5" y="159.1" width="11" height="20.9" rx="2" fill="#DCEBFA" stroke="#1C1C2E" stroke-width="1"/><rect x="79.0" y="153.7" width="11" height="26.3" rx="2" fill="#DCEBFA" stroke="#1C1C2E" stroke-width="1"/><rect x="94.5" y="159.9" width="11" height="20.1" rx="2" fill="#DCEBFA" stroke="#1C1C2E" stroke-width="1"/><rect x="110.0" y="155.0" width="11" height="25.0" rx="2" fill="#DCEBFA" stroke="#1C1C2E" stroke-width="1"/><rect x="125.5" y="156.8" width="11" height="23.2" rx="2" fill="#DCEBFA" stroke="#1C1C2E" stroke-width="1"/><rect x="141.0" y="160.1" width="11" height="19.9" rx="2" fill="#DCEBFA" stroke="#1C1C2E" stroke-width="1"/><rect x="156.5" y="155.3" width="11" height="24.7" rx="2" fill="#DCEBFA" stroke="#1C1C2E" stroke-width="1"/><rect x="172.0" y="160.3" width="11" height="19.7" rx="2" fill="#DCEBFA" stroke="#1C1C2E" stroke-width="1"/><rect x="187.5" y="156.1" width="11" height="23.9" rx="2" fill="#DCEBFA" stroke="#1C1C2E" stroke-width="1"/><rect x="203.0" y="160.0" width="11" height="20.0" rx="2" fill="#DCEBFA" stroke="#1C1C2E" stroke-width="1"/><rect x="218.5" y="159.7" width="11" height="20.3" rx="2" fill="#DCEBFA" stroke="#1C1C2E" stroke-width="1"/><rect x="234.0" y="156.2" width="11" height="23.8" rx="2" fill="#DCEBFA" stroke="#1C1C2E" stroke-width="1"/><rect x="249.5" y="151.9" width="11" height="28.1" rx="2" fill="#DCEBFA" stroke="#1C1C2E" stroke-width="1"/><rect x="265.0" y="47.1" width="11" height="132.9" rx="2" fill="#F4845F" stroke="#1C1C2E" stroke-width="1"/><rect x="280.5" y="158.3" width="11" height="21.7" rx="2" fill="#DCEBFA" stroke="#1C1C2E" stroke-width="1"/><rect x="296.0" y="154.0" width="11" height="26.0" rx="2" fill="#DCEBFA" stroke="#1C1C2E" stroke-width="1"/><rect x="311.5" y="150.6" width="11" height="29.4" rx="2" fill="#DCEBFA" stroke="#1C1C2E" stroke-width="1"/><rect x="327.0" y="154.5" width="11" height="25.5" rx="2" fill="#DCEBFA" stroke="#1C1C2E" stroke-width="1"/><rect x="342.5" y="156.5" width="11" height="23.5" rx="2" fill="#DCEBFA" stroke="#1C1C2E" stroke-width="1"/><rect x="358.0" y="150.3" width="11" height="29.7" rx="2" fill="#DCEBFA" stroke="#1C1C2E" stroke-width="1"/><rect x="373.5" y="160.2" width="11" height="19.8" rx="2" fill="#DCEBFA" stroke="#1C1C2E" stroke-width="1"/><path d="M 40 144.4 L 385 144.4" fill="none" stroke="#52B788" stroke-width="1.6" stroke-dasharray="5 4" stroke-linecap="round" stroke-linejoin="round"/><text font-family="system-ui,-apple-system,Segoe UI,Roboto,sans-serif" font-size="10" font-weight="600" fill="#1C1C2E" text-anchor="start"><tspan x="48" y="138.42857142857142">16,6 ms: o orçamento a 60 FPS</tspan></text><text font-family="system-ui,-apple-system,Segoe UI,Roboto,sans-serif" font-size="10.5" font-weight="700" fill="#1C1C2E" text-anchor="start"><tspan x="300" y="62">o tranco</tspan></text><path d="M 297 58 L 280 58" fill="none" stroke="#1C1C2E" stroke-width="1.4" stroke-linecap="round" stroke-linejoin="round"/><path d="M 286.3 55.0 L 280 58 L 286.3 61.0" fill="none" stroke="#1C1C2E" stroke-width="1.4" stroke-linecap="round" stroke-linejoin="round"/><text font-family="system-ui,-apple-system,Segoe UI,Roboto,sans-serif" font-size="10" font-weight="400" fill="#1C1C2E" fill-opacity="0.75" text-anchor="middle"><tspan x="212" y="200">cada barra é um frame</tspan></text></svg>