<svg xmlns="http://www.w3.org/2000/svg" viewBox="0 0 400 150" width="400" height="150" role="img" aria-label="Quatro desenhos lado a lado: um quadradinho (escalar), uma fileira de quadradinhos (vetor), uma grade (matriz) e um cubo de grades empilhadas (tensor de 3 direções)."><title>Quatro desenhos lado a lado: um quadradinho (escalar), uma fileira de quadradinhos (vetor), uma grade (matriz) e um cubo de grades empilhadas (tensor de 3 direções).</title><rect x="30" y="55" width="16" height="16" rx="2" fill="#DCEBFA" stroke="#1C1C2E" stroke-width="1.6"/><text font-family="system-ui,-apple-system,Segoe UI,Roboto,sans-serif" font-size="11" font-weight="700" fill="#1C1C2E" text-anchor="middle"><tspan x="38" y="120">escalar</tspan></text><rect x="90" y="30" width="16" height="16" rx="2" fill="#DCEBFA" stroke="#1C1C2E" stroke-width="1.6"/><rect x="90" y="46" width="16" height="16" rx="2" fill="#DCEBFA" stroke="#1C1C2E" stroke-width="1.6"/><rect x="90" y="62" width="16" height="16" rx="2" fill="#DCEBFA" stroke="#1C1C2E" stroke-width="1.6"/><rect x="90" y="78" width="16" height="16" rx="2" fill="#DCEBFA" stroke="#1C1C2E" stroke-width="1.6"/><text font-family="system-ui,-apple-system,Segoe UI,Roboto,sans-serif" font-size="11" font-weight="700" fill="#1C1C2E" text-anchor="middle"><tspan x="98" y="120">vetor</tspan></text><rect x="150" y="38" width="16" height="16" rx="2" fill="#DCEBFA" stroke="#1C1C2E" stroke-width="1.6"/><rect x="166" y="38" width="16" height="16" rx="2" fill="#DCEBFA" stroke="#1C1C2E" stroke-width="1.6"/><rect x="182" y="38" width="16" height="16" rx="2" fill="#DCEBFA" stroke="#1C1C2E" stroke-width="1.6"/><rect x="198" y="38" width="16" height="16" rx="2" fill="#DCEBFA" stroke="#1C1C2E" stroke-width="1.6"/><rect x="150" y="54" width="16" height="16" rx="2" fill="#DCEBFA" stroke="#1C1C2E" stroke-width="1.6"/><rect x="166" y="54" width="16" height="16" rx="2" fill="#DCEBFA" stroke="#1C1C2E" stroke-width="1.6"/><rect x="182" y="54" width="16" height="16" rx="2" fill="#DCEBFA" stroke="#1C1C2E" stroke-width="1.6"/><rect x="198" y="54" width="16" height="16" rx="2" fill="#DCEBFA" stroke="#1C1C2E" stroke-width="1.6"/><rect x="150" y="70" width="16" height="16" rx="2" fill="#DCEBFA" stroke="#1C1C2E" stroke-width="1.6"/><rect x="166" y="70" width="16" height="16" rx="2" fill="#DCEBFA" stroke="#1C1C2E" stroke-width="1.6"/><rect x="182" y="70" width="16" height="16" rx="2" fill="#DCEBFA" stroke="#1C1C2E" stroke-width="1.6"/><rect x="198" y="70" width="16" height="16" rx="2" fill="#DCEBFA" stroke="#1C1C2E" stroke-width="1.6"/><text font-family="system-ui,-apple-system,Segoe UI,Roboto,sans-serif" font-size="11" font-weight="700" fill="#1C1C2E" text-anchor="middle"><tspan x="182" y="120">matriz</tspan></text><rect x="294" y="22" width="16" height="16" rx="2" fill="#DDF3E7" stroke="#1C1C2E" stroke-width="1.6"/><rect x="310" y="22" width="16" height="16" rx="2" fill="#DDF3E7" stroke="#1C1C2E" stroke-width="1.6"/><rect x="326" y="22" width="16" height="16" rx="2" fill="#DDF3E7" stroke="#1C1C2E" stroke-width="1.6"/><rect x="342" y="22" width="16" height="16" rx="2" fill="#DDF3E7" stroke="#1C1C2E" stroke-width="1.6"/><rect x="294" y="38" width="16" height="16" rx="2" fill="#DDF3E7" stroke="#1C1C2E" stroke-width="1.6"/><rect x="310" y="38" width="16" height="16" rx="2" fill="#DDF3E7" stroke="#1C1C2E" stroke-width="1.6"/><rect x="326" y="38" width="16" height="16" rx="2" fill="#DDF3E7" stroke="#1C1C2E" stroke-width="1.6"/><rect x="342" y="38" width="16" height="16" rx="2" fill="#DDF3E7" stroke="#1C1C2E" stroke-width="1.6"/><rect x="294" y="54" width="16" height="16" rx="2" fill="#DDF3E7" stroke="#1C1C2E" stroke-width="1.6"/><rect x="310" y="54" width="16" height="16" rx="2" fill="#DDF3E7" stroke="#1C1C2E" stroke-width="1.6"/><rect x="326" y="54" width="16" height="16" rx="2" fill="#DDF3E7" stroke="#1C1C2E" stroke-width="1.6"/><rect x="342" y="54" width="16" height="16" rx="2" fill="#DDF3E7" stroke="#1C1C2E" stroke-width="1.6"/><rect x="286" y="30" width="16" height="16" rx="2" fill="#DDF3E7" stroke="#1C1C2E" stroke-width="1.6"/><rect x="302" y="30" width="16" height="16" rx="2" fill="#DDF3E7" stroke="#1C1C2E" stroke-width="1.6"/><rect x="318" y="30" width="16" height="16" rx="2" fill="#DDF3E7" stroke="#1C1C2E" stroke-width="1.6"/><rect x="334" y="30" width="16" height="16" rx="2" fill="#DDF3E7" stroke="#1C1C2E" stroke-width="1.6"/><rect x="286" y="46" width="16" height="16" rx="2" fill="#DDF3E7" stroke="#1C1C2E" stroke-width="1.6"/><rect x="302" y="46" width="16" height="16" rx="2" fill="#DDF3E7" stroke="#1C1C2E" stroke-width="1.6"/><rect x="318" y="46" width="16" height="16" rx="2" fill="#DDF3E7" stroke="#1C1C2E" stroke-width="1.6"/><rect x="334" y="46" width="16" height="16" rx="2" fill="#DDF3E7" stroke="#1C1C2E" stroke-width="1.6"/><rect x="286" y="62" width="16" height="16" rx="2" fill="#DDF3E7" stroke="#1C1C2E" stroke-width="1.6"/><rect x="302" y="62" width="16" height="16" rx="2" fill="#DDF3E7" stroke="#1C1C2E" stroke-width="1.6"/><rect x="318" y="62" width="16" height="16" rx="2" fill="#DDF3E7" stroke="#1C1C2E" stroke-width="1.6"/><rect x="334" y="62" width="16" height="16" rx="2" fill="#DDF3E7" stroke="#1C1C2E" stroke-width="1.6"/><rect x="278" y="38" width="16" height="16" rx="2" fill="#DDF3E7" stroke="#1C1C2E" stroke-width="1.6"/><rect x="294" y="38" width="16" height="16" rx="2" fill="#DDF3E7" stroke="#1C1C2E" stroke-width="1.6"/><rect x="310" y="38" width="16" height="16" rx="2" fill="#DDF3E7" stroke="#1C1C2E" stroke-width="1.6"/><rect x="326" y="38" width="16" height="16" rx="2" fill="#DDF3E7" stroke="#1C1C2E" stroke-width="1.6"/><rect x="278" y="54" width="16" height="16" rx="2" fill="#DDF3E7" stroke="#1C1C2E" stroke-width="1.6"/><rect x="294" y="54" width="16" height="16" rx="2" fill="#DDF3E7" stroke="#1C1C2E" stroke-width="1.6"/><rect x="310" y="54" width="16" height="16" rx="2" fill="#DDF3E7" stroke="#1C1C2E" stroke-width="1.6"/><rect x="326" y="54" width="16" height="16" rx="2" fill="#DDF3E7" stroke="#1C1C2E" stroke-width="1.6"/><rect x="278" y="70" width="16" height="16" rx="2" fill="#DDF3E7" stroke="#1C1C2E" stroke-width="1.6"/><rect x="294" y="70" width="16" height="16" rx="2" fill="#DDF3E7" stroke="#1C1C2E" stroke-width="1.6"/><rect x="310" y="70" width="16" height="16" rx="2" fill="#DDF3E7" stroke="#1C1C2E" stroke-width="1.6"/><rect x="326" y="70" width="16" height="16" rx="2" fill="#DDF3E7" stroke="#1C1C2E" stroke-width="1.6"/><rect x="270" y="46" width="16" height="16" rx="2" fill="#DCEBFA" stroke="#1C1C2E" stroke-width="1.6"/><rect x="286" y="46" width="16" height="16" rx="2" fill="#DCEBFA" stroke="#1C1C2E" stroke-width="1.6"/><rect x="302" y="46" width="16" height="16" rx="2" fill="#DCEBFA" stroke="#1C1C2E" stroke-width="1.6"/><rect x="318" y="46" width="16" height="16" rx="2" fill="#DCEBFA" stroke="#1C1C2E" stroke-width="1.6"/><rect x="270" y="62" width="16" height="16" rx="2" fill="#DCEBFA" stroke="#1C1C2E" stroke-width="1.6"/><rect x="286" y="62" width="16" height="16" rx="2" fill="#DCEBFA" stroke="#1C1C2E" stroke-width="1.6"/><rect x="302" y="62" width="16" height="16" rx="2" fill="#DCEBFA" stroke="#1C1C2E" stroke-width="1.6"/><rect x="318" y="62" width="16" height="16" rx="2" fill="#DCEBFA" stroke="#1C1C2E" stroke-width="1.6"/><rect x="270" y="78" width="16" height="16" rx="2" fill="#DCEBFA" stroke="#1C1C2E" stroke-width="1.6"/><rect x="286" y="78" width="16" height="16" rx="2" fill="#DCEBFA" stroke="#1C1C2E" stroke-width="1.6"/><rect x="302" y="78" width="16" height="16" rx="2" fill="#DCEBFA" stroke="#1C1C2E" stroke-width="1.6"/><rect x="318" y="78" width="16" height="16" rx="2" fill="#DCEBFA" stroke="#1C1C2E" stroke-width="1.6"/><text font-family="system-ui,-apple-system,Segoe UI,Roboto,sans-serif" font-size="11" font-weight="700" fill="#1C1C2E" text-anchor="middle"><tspan x="318" y="120">tensor</tspan></text></svg>