<svg xmlns="http://www.w3.org/2000/svg" viewBox="0 0 400 220" width="400" height="220" role="img" aria-label="Uma curva com um morro e um vale. No topo do morro e no fundo do vale, pequenas retas tangentes deitadas mostram que a derivada é zero."><title>Uma curva com um morro e um vale. No topo do morro e no fundo do vale, pequenas retas tangentes deitadas mostram que a derivada é zero.</title><path d="M 40 110.0 L 378 110.0" fill="none" stroke="#1C1C2E" stroke-width="1.3" stroke-linecap="round" stroke-linejoin="round"/><path d="M 371.7 113.0 L 378 110.0 L 371.7 107.0" fill="none" stroke="#1C1C2E" stroke-width="1.3" stroke-linecap="round" stroke-linejoin="round"/><path d="M 205.0 202 L 205.0 12" fill="none" stroke="#1C1C2E" stroke-width="1.3" stroke-linecap="round" stroke-linejoin="round"/><path d="M 208.0 18.3 L 205.0 12 L 202.0 18.3" fill="none" stroke="#1C1C2E" stroke-width="1.3" stroke-linecap="round" stroke-linejoin="round"/><text font-family="system-ui,-apple-system,Segoe UI,Roboto,sans-serif" font-size="11" font-weight="700" fill="#1C1C2E" text-anchor="middle"><tspan x="380" y="124.0">x</tspan></text><text font-family="system-ui,-apple-system,Segoe UI,Roboto,sans-serif" font-size="11" font-weight="700" fill="#1C1C2E" text-anchor="middle"><tspan x="195.0" y="22">y</tspan></text><path d="M 63.3 215.9 L 65.9 203.4 L 68.4 191.6 L 70.9 180.3 L 73.4 169.5 L 76.0 159.3 L 78.5 149.6 L 81.0 140.4 L 83.6 131.8 L 86.1 123.6 L 88.6 115.9 L 91.2 108.7 L 93.7 102.0 L 96.2 95.7 L 98.7 89.9 L 101.3 84.5 L 103.8 79.5 L 106.3 74.9 L 108.9 70.8 L 111.4 67.0 L 113.9 63.6 L 116.5 60.6 L 119.0 58.0 L 121.5 55.7 L 124.0 53.8 L 126.6 52.1 L 129.1 50.8 L 131.6 49.9 L 134.2 49.2 L 136.7 48.8 L 139.2 48.7 L 141.8 48.8 L 144.3 49.2 L 146.8 49.9 L 149.3 50.8 L 151.9 51.9 L 154.4 53.3 L 156.9 54.8 L 159.5 56.6 L 162.0 58.5 L 164.5 60.6 L 167.1 62.9 L 169.6 65.4 L 172.1 67.9 L 174.6 70.7 L 177.2 73.5 L 179.7 76.5 L 182.2 79.5 L 184.8 82.7 L 187.3 85.9 L 189.8 89.2 L 192.3 92.6 L 194.9 96.0 L 197.4 99.5 L 199.9 103.0 L 202.5 106.5 L 205.0 110.0 L 207.5 113.5 L 210.1 117.0 L 212.6 120.5 L 215.1 124.0 L 217.7 127.4 L 220.2 130.8 L 222.7 134.1 L 225.2 137.3 L 227.8 140.5 L 230.3 143.5 L 232.8 146.5 L 235.4 149.3 L 237.9 152.1 L 240.4 154.6 L 242.9 157.1 L 245.5 159.4 L 248.0 161.5 L 250.5 163.4 L 253.1 165.2 L 255.6 166.7 L 258.1 168.1 L 260.7 169.2 L 263.2 170.1 L 265.7 170.8 L 268.2 171.2 L 270.8 171.3 L 273.3 171.2 L 275.8 170.8 L 278.4 170.1 L 280.9 169.2 L 283.4 167.9 L 286.0 166.2 L 288.5 164.3 L 291.0 162.0 L 293.5 159.4 L 296.1 156.4 L 298.6 153.0 L 301.1 149.2 L 303.7 145.1 L 306.2 140.5 L 308.7 135.5 L 311.3 130.1 L 313.8 124.3 L 316.3 118.0 L 318.8 111.3 L 321.4 104.1 L 323.9 96.4 L 326.4 88.2 L 329.0 79.6 L 331.5 70.4 L 334.0 60.7 L 336.6 50.5 L 339.1 39.7 L 341.6 28.4 L 344.1 16.6 L 346.7 4.1" fill="none" stroke="#2F6FB0" stroke-width="2.2" stroke-linecap="round" stroke-linejoin="round"/><path d="M 106.0 48.7 L 172.0 48.7" fill="none" stroke="#C45A34" stroke-width="2" stroke-linecap="round" stroke-linejoin="round"/><circle cx="139.0" cy="48.7" r="4" fill="#F4845F" stroke="#1C1C2E" stroke-width="1.2"/><text font-family="system-ui,-apple-system,Segoe UI,Roboto,sans-serif" font-size="10.5" font-weight="600" fill="#1C1C2E" text-anchor="middle"><tspan x="139.0" y="36.7">máximo: derivada 0</tspan></text><path d="M 238.0 171.3 L 304.0 171.3" fill="none" stroke="#C45A34" stroke-width="2" stroke-linecap="round" stroke-linejoin="round"/><circle cx="271.0" cy="171.3" r="4" fill="#F4845F" stroke="#1C1C2E" stroke-width="1.2"/><text font-family="system-ui,-apple-system,Segoe UI,Roboto,sans-serif" font-size="10.5" font-weight="600" fill="#1C1C2E" text-anchor="middle"><tspan x="271.0" y="191.3">mínimo: derivada 0</tspan></text></svg>