<svg xmlns="http://www.w3.org/2000/svg" viewBox="0 0 400 200" width="400" height="200" role="img" aria-label="Três linhas mostram a geração de um texto. Na primeira, a entrada “O gato” entra no modelo e sai “subiu”. Na segunda, a entrada já é “O gato subiu”, e sai “no”. Na terceira, a entrada é “O gato subiu no”, e sai “telhado”. Cada palavra que sai volta como parte da entrada."><title>Três linhas mostram a geração de um texto. Na primeira, a entrada “O gato” entra no modelo e sai “subiu”. Na segunda, a entrada já é “O gato subiu”, e sai “no”. Na terceira, a entrada é “O gato subiu no”, e sai “telhado”. Cada palavra que sai volta como parte da entrada.</title><rect x="12" y="16" width="150" height="34" rx="7" fill="#DCEBFA" stroke="#1C1C2E" stroke-width="1.6"/><text font-family="system-ui,-apple-system,Segoe UI,Roboto,sans-serif" font-size="12" font-weight="600" fill="#1C1C2E" text-anchor="middle"><tspan x="87.0" y="37.32">O gato</tspan></text><path d="M 166 33 L 196 33" fill="none" stroke="#1C1C2E" stroke-width="1.4" stroke-linecap="round" stroke-linejoin="round"/><path d="M 189.7 36.0 L 196 33 L 189.7 30.0" fill="none" stroke="#1C1C2E" stroke-width="1.4" stroke-linecap="round" stroke-linejoin="round"/><rect x="200" y="16" width="74" height="34" rx="7" fill="#ECEBE6" stroke="#1C1C2E" stroke-width="1.6"/><text font-family="system-ui,-apple-system,Segoe UI,Roboto,sans-serif" font-size="11.5" font-weight="700" fill="#1C1C2E" text-anchor="middle"><tspan x="237.0" y="37.14">modelo</tspan></text><path d="M 278 33 L 306 33" fill="none" stroke="#1C1C2E" stroke-width="1.4" stroke-linecap="round" stroke-linejoin="round"/><path d="M 299.7 36.0 L 306 33 L 299.7 30.0" fill="none" stroke="#1C1C2E" stroke-width="1.4" stroke-linecap="round" stroke-linejoin="round"/><rect x="310" y="16" width="76" height="34" rx="7" fill="#DDF3E7" stroke="#1C1C2E" stroke-width="1.6"/><text font-family="system-ui,-apple-system,Segoe UI,Roboto,sans-serif" font-size="12.5" font-weight="700" fill="#1C1C2E" text-anchor="middle"><tspan x="348.0" y="37.5">subiu</tspan></text><path d="M 348 52 C 348 66, 90 60, 90 74" fill="none" stroke="#1C1C2E" stroke-width="1.1" stroke-dasharray="5 4" stroke-opacity="0.6" stroke-linecap="round" stroke-linejoin="round"/><rect x="12" y="76" width="150" height="34" rx="7" fill="#DCEBFA" stroke="#1C1C2E" stroke-width="1.6"/><text font-family="system-ui,-apple-system,Segoe UI,Roboto,sans-serif" font-size="12" font-weight="600" fill="#1C1C2E" text-anchor="middle"><tspan x="87.0" y="97.32">O gato subiu</tspan></text><path d="M 166 93 L 196 93" fill="none" stroke="#1C1C2E" stroke-width="1.4" stroke-linecap="round" stroke-linejoin="round"/><path d="M 189.7 96.0 L 196 93 L 189.7 90.0" fill="none" stroke="#1C1C2E" stroke-width="1.4" stroke-linecap="round" stroke-linejoin="round"/><rect x="200" y="76" width="74" height="34" rx="7" fill="#ECEBE6" stroke="#1C1C2E" stroke-width="1.6"/><text font-family="system-ui,-apple-system,Segoe UI,Roboto,sans-serif" font-size="11.5" font-weight="700" fill="#1C1C2E" text-anchor="middle"><tspan x="237.0" y="97.14">modelo</tspan></text><path d="M 278 93 L 306 93" fill="none" stroke="#1C1C2E" stroke-width="1.4" stroke-linecap="round" stroke-linejoin="round"/><path d="M 299.7 96.0 L 306 93 L 299.7 90.0" fill="none" stroke="#1C1C2E" stroke-width="1.4" stroke-linecap="round" stroke-linejoin="round"/><rect x="310" y="76" width="76" height="34" rx="7" fill="#DDF3E7" stroke="#1C1C2E" stroke-width="1.6"/><text font-family="system-ui,-apple-system,Segoe UI,Roboto,sans-serif" font-size="12.5" font-weight="700" fill="#1C1C2E" text-anchor="middle"><tspan x="348.0" y="97.5">no</tspan></text><path d="M 348 112 C 348 126, 90 120, 90 134" fill="none" stroke="#1C1C2E" stroke-width="1.1" stroke-dasharray="5 4" stroke-opacity="0.6" stroke-linecap="round" stroke-linejoin="round"/><rect x="12" y="136" width="150" height="34" rx="7" fill="#DCEBFA" stroke="#1C1C2E" stroke-width="1.6"/><text font-family="system-ui,-apple-system,Segoe UI,Roboto,sans-serif" font-size="12" font-weight="600" fill="#1C1C2E" text-anchor="middle"><tspan x="87.0" y="157.32">O gato subiu no</tspan></text><path d="M 166 153 L 196 153" fill="none" stroke="#1C1C2E" stroke-width="1.4" stroke-linecap="round" stroke-linejoin="round"/><path d="M 189.7 156.0 L 196 153 L 189.7 150.0" fill="none" stroke="#1C1C2E" stroke-width="1.4" stroke-linecap="round" stroke-linejoin="round"/><rect x="200" y="136" width="74" height="34" rx="7" fill="#ECEBE6" stroke="#1C1C2E" stroke-width="1.6"/><text font-family="system-ui,-apple-system,Segoe UI,Roboto,sans-serif" font-size="11.5" font-weight="700" fill="#1C1C2E" text-anchor="middle"><tspan x="237.0" y="157.14">modelo</tspan></text><path d="M 278 153 L 306 153" fill="none" stroke="#1C1C2E" stroke-width="1.4" stroke-linecap="round" stroke-linejoin="round"/><path d="M 299.7 156.0 L 306 153 L 299.7 150.0" fill="none" stroke="#1C1C2E" stroke-width="1.4" stroke-linecap="round" stroke-linejoin="round"/><rect x="310" y="136" width="76" height="34" rx="7" fill="#DDF3E7" stroke="#1C1C2E" stroke-width="1.6"/><text font-family="system-ui,-apple-system,Segoe UI,Roboto,sans-serif" font-size="12.5" font-weight="700" fill="#1C1C2E" text-anchor="middle"><tspan x="348.0" y="157.5">telhado</tspan></text></svg>