<svg xmlns="http://www.w3.org/2000/svg" viewBox="0 0 400 236" width="400" height="236" role="img" aria-label="O vetor de um token, uma barra comprida, é dividido em quatro pedaços de cores diferentes. Cada pedaço entra numa cabeça de atenção: cabeça 1, 2, 3 e 4, lado a lado. As quatro saídas são coladas de volta numa barra só, que passa por mais uma matriz e vira a saída."><title>O vetor de um token, uma barra comprida, é dividido em quatro pedaços de cores diferentes. Cada pedaço entra numa cabeça de atenção: cabeça 1, 2, 3 e 4, lado a lado. As quatro saídas são coladas de volta numa barra só, que passa por mais uma matriz e vira a saída.</title><rect x="80" y="12" width="60" height="22" rx="0" fill="#DCEBFA" stroke="#1C1C2E" stroke-width="1.2"/><rect x="140" y="12" width="60" height="22" rx="0" fill="#DDF3E7" stroke="#1C1C2E" stroke-width="1.2"/><rect x="200" y="12" width="60" height="22" rx="0" fill="#FDE7DF" stroke="#1C1C2E" stroke-width="1.2"/><rect x="260" y="12" width="60" height="22" rx="0" fill="#F3E6B3" stroke="#1C1C2E" stroke-width="1.2"/><text font-family="system-ui,-apple-system,Segoe UI,Roboto,sans-serif" font-size="11" font-weight="700" fill="#1C1C2E" text-anchor="middle"><tspan x="40" y="28">vetor</tspan></text><path d="M 110 36 L 50 70" fill="none" stroke="#1C1C2E" stroke-width="1.4" stroke-linecap="round" stroke-linejoin="round"/><path d="M 54.0 64.2 L 50 70 L 57.0 69.5" fill="none" stroke="#1C1C2E" stroke-width="1.4" stroke-linecap="round" stroke-linejoin="round"/><rect x="8" y="74" width="84" height="36" rx="7" fill="#DCEBFA" stroke="#1C1C2E" stroke-width="1.6"/><text font-family="system-ui,-apple-system,Segoe UI,Roboto,sans-serif" font-size="11.5" font-weight="700" fill="#1C1C2E" text-anchor="middle"><tspan x="50.0" y="96.14">cabeça 1</tspan></text><path d="M 50 112 L 110 144" fill="none" stroke="#1C1C2E" stroke-width="1.4" stroke-linecap="round" stroke-linejoin="round"/><path d="M 103.0 143.7 L 110 144 L 105.9 138.3" fill="none" stroke="#1C1C2E" stroke-width="1.4" stroke-linecap="round" stroke-linejoin="round"/><path d="M 170 36 L 150 70" fill="none" stroke="#1C1C2E" stroke-width="1.4" stroke-linecap="round" stroke-linejoin="round"/><path d="M 150.6 63.0 L 150 70 L 155.8 66.1" fill="none" stroke="#1C1C2E" stroke-width="1.4" stroke-linecap="round" stroke-linejoin="round"/><rect x="108" y="74" width="84" height="36" rx="7" fill="#DDF3E7" stroke="#1C1C2E" stroke-width="1.6"/><text font-family="system-ui,-apple-system,Segoe UI,Roboto,sans-serif" font-size="11.5" font-weight="700" fill="#1C1C2E" text-anchor="middle"><tspan x="150.0" y="96.14">cabeça 2</tspan></text><path d="M 150 112 L 170 144" fill="none" stroke="#1C1C2E" stroke-width="1.4" stroke-linecap="round" stroke-linejoin="round"/><path d="M 164.1 140.3 L 170 144 L 169.2 137.0" fill="none" stroke="#1C1C2E" stroke-width="1.4" stroke-linecap="round" stroke-linejoin="round"/><path d="M 230 36 L 250 70" fill="none" stroke="#1C1C2E" stroke-width="1.4" stroke-linecap="round" stroke-linejoin="round"/><path d="M 244.2 66.1 L 250 70 L 249.4 63.0" fill="none" stroke="#1C1C2E" stroke-width="1.4" stroke-linecap="round" stroke-linejoin="round"/><rect x="208" y="74" width="84" height="36" rx="7" fill="#FDE7DF" stroke="#1C1C2E" stroke-width="1.6"/><text font-family="system-ui,-apple-system,Segoe UI,Roboto,sans-serif" font-size="11.5" font-weight="700" fill="#1C1C2E" text-anchor="middle"><tspan x="250.0" y="96.14">cabeça 3</tspan></text><path d="M 250 112 L 230 144" fill="none" stroke="#1C1C2E" stroke-width="1.4" stroke-linecap="round" stroke-linejoin="round"/><path d="M 230.8 137.0 L 230 144 L 235.9 140.3" fill="none" stroke="#1C1C2E" stroke-width="1.4" stroke-linecap="round" stroke-linejoin="round"/><path d="M 290 36 L 350 70" fill="none" stroke="#1C1C2E" stroke-width="1.4" stroke-linecap="round" stroke-linejoin="round"/><path d="M 343.0 69.5 L 350 70 L 346.0 64.2" fill="none" stroke="#1C1C2E" stroke-width="1.4" stroke-linecap="round" stroke-linejoin="round"/><rect x="308" y="74" width="84" height="36" rx="7" fill="#F3E6B3" stroke="#1C1C2E" stroke-width="1.6"/><text font-family="system-ui,-apple-system,Segoe UI,Roboto,sans-serif" font-size="11.5" font-weight="700" fill="#1C1C2E" text-anchor="middle"><tspan x="350.0" y="96.14">cabeça 4</tspan></text><path d="M 350 112 L 290 144" fill="none" stroke="#1C1C2E" stroke-width="1.4" stroke-linecap="round" stroke-linejoin="round"/><path d="M 294.1 138.3 L 290 144 L 297.0 143.7" fill="none" stroke="#1C1C2E" stroke-width="1.4" stroke-linecap="round" stroke-linejoin="round"/><rect x="80" y="148" width="60" height="22" rx="0" fill="#DCEBFA" stroke="#1C1C2E" stroke-width="1.2"/><rect x="140" y="148" width="60" height="22" rx="0" fill="#DDF3E7" stroke="#1C1C2E" stroke-width="1.2"/><rect x="200" y="148" width="60" height="22" rx="0" fill="#FDE7DF" stroke="#1C1C2E" stroke-width="1.2"/><rect x="260" y="148" width="60" height="22" rx="0" fill="#F3E6B3" stroke="#1C1C2E" stroke-width="1.2"/><text font-family="system-ui,-apple-system,Segoe UI,Roboto,sans-serif" font-size="11" font-weight="700" fill="#1C1C2E" text-anchor="middle"><tspan x="40" y="164">colar</tspan></text><path d="M 200 174 L 200 196" fill="none" stroke="#1C1C2E" stroke-width="1.4" stroke-linecap="round" stroke-linejoin="round"/><path d="M 197.0 189.7 L 200 196 L 203.0 189.7" fill="none" stroke="#1C1C2E" stroke-width="1.4" stroke-linecap="round" stroke-linejoin="round"/><rect x="140" y="200" width="120" height="28" rx="7" fill="#FFFFFF" stroke="#1C1C2E" stroke-width="1.6"/><text font-family="system-ui,-apple-system,Segoe UI,Roboto,sans-serif" font-size="11" font-weight="700" fill="#1C1C2E" text-anchor="middle"><tspan x="200.0" y="217.96">× matriz de saída</tspan></text></svg>