<svg xmlns="http://www.w3.org/2000/svg" viewBox="0 0 400 212" width="400" height="212" role="img" aria-label="Uma curva em forma de sino, com o pico na média. Faixas sombreadas mostram que 68% dos valores ficam a até 1 desvio padrão da média, 95% a até 2 e 99,7% a até 3."><title>Uma curva em forma de sino, com o pico na média. Faixas sombreadas mostram que 68% dos valores ficam a até 1 desvio padrão da média, 95% a até 2 e 99,7% a até 3.</title><path d="M 20 170.0 L 388 170.0" fill="none" stroke="#1C1C2E" stroke-width="1.3" stroke-linecap="round" stroke-linejoin="round"/><path d="M 381.7 173.0 L 388 170.0 L 381.7 167.0" fill="none" stroke="#1C1C2E" stroke-width="1.3" stroke-linecap="round" stroke-linejoin="round"/><path d="M 200.0 170 L 200.0 8" fill="none" stroke="#1C1C2E" stroke-width="1.3" stroke-linecap="round" stroke-linejoin="round"/><path d="M 203.0 14.3 L 200.0 8 L 197.0 14.3" fill="none" stroke="#1C1C2E" stroke-width="1.3" stroke-linecap="round" stroke-linejoin="round"/><path d="M 50.0 170.0 L 50.0 168.5 L 55.0 167.9 L 60.0 167.3 L 65.0 166.4 L 70.0 165.3 L 75.0 163.9 L 80.0 162.2 L 85.0 160.2 L 90.0 157.7 L 95.0 154.8 L 100.0 151.3 L 105.0 147.3 L 110.0 142.6 L 115.0 137.4 L 120.0 131.5 L 125.0 125.1 L 130.0 118.1 L 135.0 110.6 L 140.0 102.7 L 145.0 94.5 L 150.0 86.1 L 155.0 77.8 L 160.0 69.6 L 165.0 61.8 L 170.0 54.5 L 175.0 48.0 L 180.0 42.3 L 185.0 37.8 L 190.0 34.4 L 195.0 32.4 L 200.0 31.7 L 205.0 32.4 L 210.0 34.4 L 215.0 37.8 L 220.0 42.3 L 225.0 48.0 L 230.0 54.5 L 235.0 61.8 L 240.0 69.6 L 245.0 77.8 L 250.0 86.1 L 255.0 94.5 L 260.0 102.7 L 265.0 110.6 L 270.0 118.1 L 275.0 125.1 L 280.0 131.5 L 285.0 137.4 L 290.0 142.6 L 295.0 147.3 L 300.0 151.3 L 305.0 154.8 L 310.0 157.7 L 315.0 160.2 L 320.0 162.2 L 325.0 163.9 L 330.0 165.3 L 335.0 166.4 L 340.0 167.3 L 345.0 167.9 L 350.0 168.5 L 350.0 170.0 Z" fill="#EEF4FB" stroke="none"/><path d="M 100.0 170.0 L 100.0 151.3 L 103.3 148.7 L 106.7 145.8 L 110.0 142.6 L 113.3 139.2 L 116.7 135.5 L 120.0 131.5 L 123.3 127.3 L 126.7 122.8 L 130.0 118.1 L 133.3 113.1 L 136.7 108.0 L 140.0 102.7 L 143.3 97.2 L 146.7 91.7 L 150.0 86.1 L 153.3 80.5 L 156.7 75.0 L 160.0 69.6 L 163.3 64.3 L 166.7 59.3 L 170.0 54.5 L 173.3 50.0 L 176.7 46.0 L 180.0 42.3 L 183.3 39.2 L 186.7 36.5 L 190.0 34.4 L 193.3 32.9 L 196.7 32.0 L 200.0 31.7 L 203.3 32.0 L 206.7 32.9 L 210.0 34.4 L 213.3 36.5 L 216.7 39.2 L 220.0 42.3 L 223.3 46.0 L 226.7 50.0 L 230.0 54.5 L 233.3 59.3 L 236.7 64.3 L 240.0 69.6 L 243.3 75.0 L 246.7 80.5 L 250.0 86.1 L 253.3 91.7 L 256.7 97.2 L 260.0 102.7 L 263.3 108.0 L 266.7 113.1 L 270.0 118.1 L 273.3 122.8 L 276.7 127.3 L 280.0 131.5 L 283.3 135.5 L 286.7 139.2 L 290.0 142.6 L 293.3 145.8 L 296.7 148.7 L 300.0 151.3 L 300.0 170.0 Z" fill="#DCEBFA" stroke="none"/><path d="M 150.0 170.0 L 150.0 86.1 L 151.7 83.3 L 153.3 80.5 L 155.0 77.8 L 156.7 75.0 L 158.3 72.3 L 160.0 69.6 L 161.7 66.9 L 163.3 64.3 L 165.0 61.8 L 166.7 59.3 L 168.3 56.8 L 170.0 54.5 L 171.7 52.2 L 173.3 50.0 L 175.0 48.0 L 176.7 46.0 L 178.3 44.1 L 180.0 42.3 L 181.7 40.7 L 183.3 39.2 L 185.0 37.8 L 186.7 36.5 L 188.3 35.4 L 190.0 34.4 L 191.7 33.6 L 193.3 32.9 L 195.0 32.4 L 196.7 32.0 L 198.3 31.8 L 200.0 31.7 L 201.7 31.8 L 203.3 32.0 L 205.0 32.4 L 206.7 32.9 L 208.3 33.6 L 210.0 34.4 L 211.7 35.4 L 213.3 36.5 L 215.0 37.8 L 216.7 39.2 L 218.3 40.7 L 220.0 42.3 L 221.7 44.1 L 223.3 46.0 L 225.0 48.0 L 226.7 50.0 L 228.3 52.2 L 230.0 54.5 L 231.7 56.8 L 233.3 59.3 L 235.0 61.8 L 236.7 64.3 L 238.3 66.9 L 240.0 69.6 L 241.7 72.3 L 243.3 75.0 L 245.0 77.8 L 246.7 80.5 L 248.3 83.3 L 250.0 86.1 L 250.0 170.0 Z" fill="#B9D6F2" stroke="none"/><path d="M 20.0 169.8 L 23.0 169.7 L 26.0 169.7 L 29.0 169.6 L 32.0 169.5 L 35.0 169.4 L 38.0 169.3 L 41.0 169.1 L 44.0 168.9 L 47.0 168.7 L 50.0 168.5 L 53.0 168.2 L 56.0 167.8 L 59.0 167.4 L 62.0 166.9 L 65.0 166.4 L 68.0 165.8 L 71.0 165.0 L 74.0 164.2 L 77.0 163.3 L 80.0 162.2 L 83.0 161.1 L 86.0 159.7 L 89.0 158.2 L 92.0 156.6 L 95.0 154.8 L 98.0 152.7 L 101.0 150.5 L 104.0 148.1 L 107.0 145.5 L 110.0 142.6 L 113.0 139.6 L 116.0 136.3 L 119.0 132.8 L 122.0 129.0 L 125.0 125.1 L 128.0 121.0 L 131.0 116.6 L 134.0 112.1 L 137.0 107.5 L 140.0 102.7 L 143.0 97.8 L 146.0 92.8 L 149.0 87.8 L 152.0 82.8 L 155.0 77.8 L 158.0 72.8 L 161.0 68.0 L 164.0 63.3 L 167.0 58.8 L 170.0 54.5 L 173.0 50.5 L 176.0 46.7 L 179.0 43.4 L 182.0 40.4 L 185.0 37.8 L 188.0 35.6 L 191.0 33.9 L 194.0 32.7 L 197.0 31.9 L 200.0 31.7 L 203.0 31.9 L 206.0 32.7 L 209.0 33.9 L 212.0 35.6 L 215.0 37.8 L 218.0 40.4 L 221.0 43.4 L 224.0 46.7 L 227.0 50.5 L 230.0 54.5 L 233.0 58.8 L 236.0 63.3 L 239.0 68.0 L 242.0 72.8 L 245.0 77.8 L 248.0 82.8 L 251.0 87.8 L 254.0 92.8 L 257.0 97.8 L 260.0 102.7 L 263.0 107.5 L 266.0 112.1 L 269.0 116.6 L 272.0 121.0 L 275.0 125.1 L 278.0 129.0 L 281.0 132.8 L 284.0 136.3 L 287.0 139.6 L 290.0 142.6 L 293.0 145.5 L 296.0 148.1 L 299.0 150.5 L 302.0 152.7 L 305.0 154.8 L 308.0 156.6 L 311.0 158.2 L 314.0 159.7 L 317.0 161.1 L 320.0 162.2 L 323.0 163.3 L 326.0 164.2 L 329.0 165.0 L 332.0 165.8 L 335.0 166.4 L 338.0 166.9 L 341.0 167.4 L 344.0 167.8 L 347.0 168.2 L 350.0 168.5 L 353.0 168.7 L 356.0 168.9 L 359.0 169.1 L 362.0 169.3 L 365.0 169.4 L 368.0 169.5 L 371.0 169.6 L 374.0 169.7 L 377.0 169.7 L 380.0 169.8" fill="none" stroke="#1C1C2E" stroke-width="2" stroke-linecap="round" stroke-linejoin="round"/><path d="M 20.0 170.0 L 380.0 170.0" fill="none" stroke="#1C1C2E" stroke-width="1.2" stroke-linecap="round" stroke-linejoin="round"/><text font-family="system-ui,-apple-system,Segoe UI,Roboto,sans-serif" font-size="10" font-weight="600" fill="#1C1C2E" text-anchor="middle"><tspan x="50.0" y="186">−3</tspan></text><text font-family="system-ui,-apple-system,Segoe UI,Roboto,sans-serif" font-size="10" font-weight="600" fill="#1C1C2E" text-anchor="middle"><tspan x="100.0" y="186">−2</tspan></text><text font-family="system-ui,-apple-system,Segoe UI,Roboto,sans-serif" font-size="10" font-weight="600" fill="#1C1C2E" text-anchor="middle"><tspan x="150.0" y="186">−1</tspan></text><text font-family="system-ui,-apple-system,Segoe UI,Roboto,sans-serif" font-size="10" font-weight="600" fill="#1C1C2E" text-anchor="middle"><tspan x="200.0" y="186">média</tspan></text><text font-family="system-ui,-apple-system,Segoe UI,Roboto,sans-serif" font-size="10" font-weight="600" fill="#1C1C2E" text-anchor="middle"><tspan x="250.0" y="186">+1</tspan></text><text font-family="system-ui,-apple-system,Segoe UI,Roboto,sans-serif" font-size="10" font-weight="600" fill="#1C1C2E" text-anchor="middle"><tspan x="300.0" y="186">+2</tspan></text><text font-family="system-ui,-apple-system,Segoe UI,Roboto,sans-serif" font-size="10" font-weight="600" fill="#1C1C2E" text-anchor="middle"><tspan x="350.0" y="186">+3</tspan></text><text font-family="system-ui,-apple-system,Segoe UI,Roboto,sans-serif" font-size="9.5" font-weight="500" fill="#1C1C2E" text-anchor="middle"><tspan x="200" y="203">distância até a média, em desvios padrão</tspan></text><text font-family="system-ui,-apple-system,Segoe UI,Roboto,sans-serif" font-size="12" font-weight="700" fill="#1C1C2E" text-anchor="middle"><tspan x="200.0" y="100.7">68%</tspan></text><text font-family="system-ui,-apple-system,Segoe UI,Roboto,sans-serif" font-size="10.5" font-weight="700" fill="#1C1C2E" text-anchor="middle"><tspan x="277.5" y="152.7">95%</tspan></text><text font-family="system-ui,-apple-system,Segoe UI,Roboto,sans-serif" font-size="9.5" font-weight="700" fill="#1C1C2E" text-anchor="middle"><tspan x="330.0" y="145.6">99,7%</tspan></text></svg>